<?xml version="1.0" encoding="UTF-8"?>
<svg width="137px" height="25px" viewBox="0 0 137 25" version="1.1" xmlns="http://www.w3.org/2000/svg" xmlns:xlink="http://www.w3.org/1999/xlink">
    <!-- Generator: Sketch 48.1 (47250) - http://www.bohemiancoding.com/sketch -->
    <title>logo-small white</title>
    <desc>Created with Sketch.</desc>
    <defs></defs>
    <g id="quicktype.io-copy-2" stroke="none" stroke-width="1" fill="none" fill-rule="evenodd" transform="translate(-33.000000, -32.000000)">
        <g id="nav" transform="translate(33.000000, 28.000000)" fill="#FFFFFF">
            <g id="logo-small-white" transform="translate(0.000000, 4.000000)">
                <path d="M39.58,23.912 L39.58,17.422 L39.536,17.422 C39.1839982,17.8913357 38.711003,18.2616653 38.117,18.533 C37.522997,18.8043347 36.88867,18.94 36.214,18.94 C35.3779958,18.94 34.6373366,18.7786683 33.992,18.456 C33.3466634,18.1333317 32.8040022,17.704336 32.364,17.169 C31.9239978,16.633664 31.5866678,16.0140035 31.352,15.31 C31.1173322,14.6059965 31,13.8726705 31,13.11 C31,12.3473295 31.1209988,11.6176702 31.363,10.921 C31.6050012,10.2243298 31.9496644,9.61200264 32.397,9.084 C32.8443356,8.55599736 33.3869968,8.13800154 34.025,7.83 C34.6630032,7.52199846 35.377996,7.368 36.17,7.368 C36.9913374,7.368 37.698997,7.53299835 38.293,7.863 C38.887003,8.19300165 39.352665,8.5779978 39.69,9.018 L39.756,9.018 L39.756,7.676 L43.166,7.676 L43.166,23.912 L39.58,23.912 Z M39.712,13.132 C39.712,12.7799982 39.6496673,12.435335 39.525,12.098 C39.4003327,11.760665 39.2243345,11.4600013 38.997,11.196 C38.7696655,10.9319987 38.4946683,10.7193341 38.172,10.558 C37.8493317,10.3966659 37.4826687,10.316 37.072,10.316 C36.6466645,10.316 36.2726683,10.3966659 35.95,10.558 C35.6273317,10.7193341 35.3560011,10.928332 35.136,11.185 C34.9159989,11.4416679 34.7510006,11.738665 34.641,12.076 C34.5309995,12.413335 34.476,12.7579982 34.476,13.11 C34.476,13.4620018 34.5309995,13.8103316 34.641,14.155 C34.7510006,14.4996684 34.9159989,14.8039987 35.136,15.068 C35.3560011,15.3320013 35.6273317,15.5446659 35.95,15.706 C36.2726683,15.8673341 36.6466645,15.948 37.072,15.948 C37.4826687,15.948 37.8493317,15.8673341 38.172,15.706 C38.4946683,15.5446659 38.7696655,15.3320013 38.997,15.068 C39.2243345,14.8039987 39.4003327,14.503335 39.525,14.166 C39.6496673,13.828665 39.712,13.4840018 39.712,13.132 Z M53.22,18.632 L53.22,17.114 L53.176,17.114 C53.0439993,17.3633346 52.8716677,17.5979989 52.659,17.818 C52.4463323,18.0380011 52.1970014,18.2286659 51.911,18.39 C51.6249986,18.5513341 51.3096684,18.6833328 50.965,18.786 C50.6203316,18.8886672 50.2573352,18.94 49.876,18.94 C49.142663,18.94 48.5230025,18.8080013 48.017,18.544 C47.5109975,18.2799987 47.1003349,17.9390021 46.785,17.521 C46.4696651,17.1029979 46.242334,16.626336 46.103,16.091 C45.963666,15.555664 45.894,15.0093361 45.894,14.452 L45.894,7.676 L49.524,7.676 L49.524,13.616 C49.524,13.9240015 49.5459998,14.2173319 49.59,14.496 C49.6340002,14.7746681 49.7183327,15.0239989 49.843,15.244 C49.9676673,15.4640011 50.1326656,15.6363327 50.338,15.761 C50.5433344,15.8856673 50.814665,15.948 51.152,15.948 C51.7826698,15.948 52.2629984,15.7133357 52.593,15.244 C52.9230017,14.7746643 53.088,14.2246698 53.088,13.594 L53.088,7.676 L56.696,7.676 L56.696,18.632 L53.22,18.632 Z M63.428,4.178 C63.428,4.45666806 63.3730005,4.71699879 63.263,4.959 C63.1529994,5.20100121 63.0063342,5.40999912 62.823,5.586 C62.6396657,5.76200088 62.4196679,5.90133282 62.163,6.004 C61.906332,6.10666718 61.6386681,6.158 61.36,6.158 C60.7733304,6.158 60.282002,5.96366861 59.886,5.575 C59.489998,5.18633139 59.292,4.72066938 59.292,4.178 C59.292,3.91399868 59.3433328,3.66100121 59.446,3.419 C59.5486672,3.17699879 59.6953324,2.96800088 59.886,2.792 C60.0766676,2.61599912 60.2966654,2.47300055 60.546,2.363 C60.7953346,2.25299945 61.0666652,2.198 61.36,2.198 C61.6386681,2.198 61.906332,2.24933282 62.163,2.352 C62.4196679,2.45466718 62.6396657,2.59399912 62.823,2.77 C63.0063342,2.94600088 63.1529994,3.15499879 63.263,3.397 C63.3730005,3.63900121 63.428,3.89933194 63.428,4.178 Z M59.556,18.632 L59.556,7.676 L63.164,7.676 L63.164,18.632 L59.556,18.632 Z M73.57,11.218 C73.3646656,10.9539987 73.0860018,10.7413341 72.734,10.58 C72.3819982,10.4186659 72.0226685,10.338 71.656,10.338 C71.2746648,10.338 70.9300015,10.4149992 70.622,10.569 C70.3139985,10.7230008 70.0500011,10.928332 69.83,11.185 C69.6099989,11.4416679 69.4376673,11.738665 69.313,12.076 C69.1883327,12.413335 69.126,12.7726648 69.126,13.154 C69.126,13.5353352 69.1846661,13.894665 69.302,14.232 C69.4193339,14.569335 69.5916655,14.866332 69.819,15.123 C70.0463345,15.3796679 70.3176651,15.5813326 70.633,15.728 C70.9483349,15.8746674 71.303998,15.948 71.7,15.948 C72.0666685,15.948 72.4296649,15.878334 72.789,15.739 C73.1483351,15.599666 73.4379989,15.3980013 73.658,15.134 L75.66,17.576 C75.2053311,18.0160022 74.6186703,18.3606654 73.9,18.61 C73.1813297,18.8593346 72.4186707,18.984 71.612,18.984 C70.7466623,18.984 69.9400037,18.8520013 69.192,18.588 C68.4439963,18.3239987 67.7950028,17.9390025 67.245,17.433 C66.6949973,16.9269975 66.2623349,16.3146703 65.947,15.596 C65.6316651,14.8773297 65.474,14.0633379 65.474,13.154 C65.474,12.2593289 65.6316651,11.4526703 65.947,10.734 C66.2623349,10.0153297 66.6949973,9.40300253 67.245,8.897 C67.7950028,8.39099747 68.4439963,8.00233469 69.192,7.731 C69.9400037,7.45966531 70.7393291,7.324 71.59,7.324 C71.986002,7.324 72.3783314,7.3606663 72.767,7.434 C73.1556686,7.5073337 73.5296649,7.60633271 73.889,7.731 C74.2483351,7.85566729 74.5783318,8.00966575 74.879,8.193 C75.1796682,8.37633425 75.4399989,8.5779989 75.66,8.798 L73.57,11.218 Z M88.86,18.632 L84.394,18.632 L80.808,13.374 L80.742,13.374 L80.742,18.632 L77.112,18.632 L77.112,2 L80.742,2 L80.742,12.12 L80.808,12.12 L84.306,7.676 L88.684,7.676 L84.46,12.626 L88.86,18.632 Z M94.096,10.382 L94.096,14.562 C94.096,15.0753359 94.194999,15.460332 94.393,15.717 C94.591001,15.9736679 94.9466641,16.102 95.46,16.102 C95.6360009,16.102 95.822999,16.0873335 96.021,16.058 C96.219001,16.0286665 96.3839993,15.984667 96.516,15.926 L96.56,18.566 C96.3106654,18.6540004 95.9953352,18.7309997 95.614,18.797 C95.2326648,18.8630003 94.8513352,18.896 94.47,18.896 C93.736663,18.896 93.1206692,18.8043342 92.622,18.621 C92.1233308,18.4376657 91.7236682,18.1736684 91.423,17.829 C91.1223318,17.4843316 90.9060007,17.073669 90.774,16.597 C90.6419993,16.1203309 90.576,15.5886696 90.576,15.002 L90.576,10.382 L88.816,10.382 L88.816,7.676 L90.554,7.676 L90.554,4.794 L94.096,4.794 L94.096,7.676 L96.67,7.676 L96.67,10.382 L94.096,10.382 Z M104.546,20.282 C104.325999,20.8540029 104.080335,21.3636644 103.809,21.811 C103.537665,22.2583356 103.215002,22.6396651 102.841,22.955 C102.466998,23.2703349 102.027003,23.5086659 101.521,23.67 C101.014997,23.8313341 100.417337,23.912 99.728,23.912 C99.390665,23.912 99.0423351,23.8900002 98.683,23.846 C98.3236649,23.8019998 98.0120013,23.7433337 97.748,23.67 L98.144,20.634 C98.3200009,20.692667 98.5143323,20.7403331 98.727,20.777 C98.9396677,20.8136668 99.1339991,20.832 99.31,20.832 C99.8673361,20.832 100.270665,20.7036679 100.52,20.447 C100.769335,20.190332 100.981999,19.8273357 101.158,19.358 L101.51,18.456 L96.934,7.676 L100.938,7.676 L103.38,14.716 L103.446,14.716 L105.624,7.676 L109.452,7.676 L104.546,20.282 Z M123.026,13.11 C123.026,13.8726705 122.908668,14.6059965 122.674,15.31 C122.439332,16.0140035 122.098336,16.633664 121.651,17.169 C121.203664,17.704336 120.657337,18.1333317 120.012,18.456 C119.366663,18.7786683 118.633337,18.94 117.812,18.94 C117.13733,18.94 116.499336,18.8043347 115.898,18.533 C115.296664,18.2616653 114.827335,17.8913357 114.49,17.422 L114.446,17.422 L114.446,23.912 L110.838,23.912 L110.838,7.676 L114.27,7.676 L114.27,9.018 L114.336,9.018 C114.673335,8.5779978 115.138997,8.19300165 115.733,7.863 C116.327003,7.53299835 117.027329,7.368 117.834,7.368 C118.626004,7.368 119.344663,7.52199846 119.99,7.83 C120.635337,8.13800154 121.181664,8.55599736 121.629,9.084 C122.076336,9.61200264 122.420999,10.2243298 122.663,10.921 C122.905001,11.6176702 123.026,12.3473295 123.026,13.11 Z M119.528,13.11 C119.528,12.7579982 119.473001,12.413335 119.363,12.076 C119.252999,11.738665 119.091668,11.4416679 118.879,11.185 C118.666332,10.928332 118.398668,10.7193341 118.076,10.558 C117.753332,10.3966659 117.379335,10.316 116.954,10.316 C116.543331,10.316 116.176668,10.3966659 115.854,10.558 C115.531332,10.7193341 115.256334,10.9319987 115.029,11.196 C114.801666,11.4600013 114.625667,11.760665 114.501,12.098 C114.376333,12.435335 114.314,12.7799982 114.314,13.132 C114.314,13.4840018 114.376333,13.828665 114.501,14.166 C114.625667,14.503335 114.801666,14.8039987 115.029,15.068 C115.256334,15.3320013 115.531332,15.5446659 115.854,15.706 C116.176668,15.8673341 116.543331,15.948 116.954,15.948 C117.379335,15.948 117.753332,15.8673341 118.076,15.706 C118.398668,15.5446659 118.666332,15.3320013 118.879,15.068 C119.091668,14.8039987 119.252999,14.4996684 119.363,14.155 C119.473001,13.8103316 119.528,13.4620018 119.528,13.11 Z M132.838,11.9 C132.838,11.3279971 132.658335,10.8366687 132.299,10.426 C131.939665,10.0153313 131.40067,9.81 130.682,9.81 C130.329998,9.81 130.007335,9.86499945 129.714,9.975 C129.420665,10.0850005 129.164001,10.2353324 128.944,10.426 C128.723999,10.6166676 128.548001,10.840332 128.416,11.097 C128.283999,11.3536679 128.210667,11.6213319 128.196,11.9 L132.838,11.9 Z M136.16,13.286 L136.16,13.726 C136.16,13.8726674 136.152667,14.0119993 136.138,14.144 L128.196,14.144 C128.225333,14.4520015 128.316999,14.7306654 128.471,14.98 C128.625001,15.2293346 128.822999,15.4456657 129.065,15.629 C129.307001,15.8123342 129.578332,15.9553328 129.879,16.058 C130.179668,16.1606672 130.491332,16.212 130.814,16.212 C131.386003,16.212 131.869998,16.1056677 132.266,15.893 C132.662002,15.6803323 132.984665,15.405335 133.234,15.068 L135.742,16.652 C135.228664,17.4000037 134.550338,17.9756646 133.707,18.379 C132.863662,18.7823353 131.884672,18.984 130.77,18.984 C129.948663,18.984 129.171337,18.8556679 128.438,18.599 C127.704663,18.342332 127.063003,17.9683358 126.513,17.477 C125.962997,16.9856642 125.530335,16.3806703 125.215,15.662 C124.899665,14.9433297 124.742,14.1220046 124.742,13.198 C124.742,12.3033289 124.895998,11.4930036 125.204,10.767 C125.512002,10.0409964 125.929997,9.42500253 126.458,8.919 C126.986003,8.41299747 127.60933,8.02066806 128.328,7.742 C129.04667,7.46333194 129.823996,7.324 130.66,7.324 C131.466671,7.324 132.20733,7.45966531 132.882,7.731 C133.55667,8.00233469 134.135998,8.3946641 134.62,8.908 C135.104002,9.4213359 135.481665,10.044663 135.753,10.778 C136.024335,11.511337 136.16,12.3473286 136.16,13.286 Z" id="quicktype"></path>
                <path d="M11.6472103,14.9337036 C11.7360621,14.8517491 11.8249137,14.7585242 11.9137661,14.6540279 C12.0510666,14.4925535 12.1739125,14.3077578 12.2823076,14.0996352 C12.3907027,13.8915126 12.4774175,13.6600695 12.5424545,13.4052987 C12.6074916,13.150528 12.6400096,12.8760256 12.6400096,12.5817834 C12.6400096,12.0076522 12.5370358,11.4819712 12.3310851,11.0047246 C12.1251345,10.527478 11.8378918,10.1184157 11.4693484,9.77752527 C11.1008051,9.43663486 10.6636181,9.17110316 10.1577743,8.98092219 C9.65193051,8.79074123 9.10273691,8.69565217 8.51017704,8.69565217 C7.91761717,8.69565217 7.36661702,8.79074123 6.85716006,8.98092219 C6.3477031,9.17110316 5.90690298,9.43842899 5.53474648,9.78290772 C5.16258997,10.1273864 4.87173416,10.5400371 4.6621703,11.020872 C4.45260644,11.5017068 4.34782609,12.0327703 4.34782609,12.6140781 C4.34782609,13.2384458 4.44718677,13.7928329 4.64591112,14.2772561 C4.84463546,14.7616794 5.12284538,15.1707417 5.4805492,15.5044555 C5.83825302,15.8381692 6.27002035,16.091142 6.77586415,16.2633814 C7.28170794,16.4356207 7.83812776,16.5217391 8.44514031,16.5217391 L12.7462472,16.5217391 C13.1505272,16.5217391 13.4782609,16.1940055 13.4782609,15.7897255 C13.4782609,15.7858034 13.4782288,15.7818813 13.4781647,15.7779597 C13.4716667,15.3802848 13.1440198,15.0631734 12.7463449,15.0696715 L12.4462227,15.0745756 C11.9103596,15.1162721 11.4493806,15.2371903 11.0632855,15.4373302 L11.5018668,15.0590602 L11.5018668,15.0577119 C11.5083652,15.0526168 11.5148636,15.0474615 11.521362,15.0422459 L11.647212,14.9337021 Z M12.4505929,24.9011858 C5.57432031,24.9011858 0,19.3268655 0,12.4505929 C0,5.57432031 5.57432031,0 12.4505929,0 C19.3268655,0 24.9011858,5.57432031 24.9011858,12.4505929 C24.9011858,19.3268655 19.3268655,24.9011858 12.4505929,24.9011858 Z M13.9276056,8.91304348 C13.4393155,8.91304348 13.0434783,9.30888076 13.0434783,9.79717079 C13.0434783,10.2854608 13.4393155,10.6812981 13.9276056,10.6812981 L19.1158727,10.6812981 C19.6041627,10.6812981 20,10.2854608 20,9.79717079 C20,9.30888076 19.6041627,8.91304348 19.1158727,8.91304348 L13.9276056,8.91304348 Z M15.6521739,15.406406 C15.6521739,15.9023256 16.0414915,16.3043478 16.5217391,16.3043478 C17.0019867,16.3043478 17.3913043,15.9023256 17.3913043,15.406406 L17.3913043,11.9848983 C17.3913043,11.4889788 17.0019867,11.3043478 16.5217391,11.3043478 C16.0414915,11.3043478 15.6521739,11.4889788 15.6521739,11.9848983 L15.6521739,15.406406 Z M10.6780682,12.6356079 C10.6780682,12.9800866 10.6238714,13.2940599 10.5154763,13.5775372 C10.4070812,13.8610145 10.2553304,14.1050166 10.0602192,14.3095509 C9.86510802,14.5140851 9.63386861,14.6719688 9.36649404,14.7832067 C9.09911946,14.8944447 8.8100702,14.9500628 8.49933759,14.9500628 C8.18137863,14.9500628 7.89052282,14.8944447 7.62676141,14.7832067 C7.36300001,14.6719688 7.13537371,14.5140851 6.94387571,14.3095509 C6.7523777,14.1050166 6.60423996,13.8610145 6.49945803,13.5775372 C6.3946761,13.2940599 6.34228592,12.9800866 6.34228592,12.6356079 C6.34228592,12.3054825 6.39648266,12.0004798 6.50487776,11.7205909 C6.61327285,11.4407019 6.76502371,11.2002881 6.96013489,10.9993421 C7.15524607,10.7983962 7.38467892,10.6423066 7.64844032,10.5310687 C7.91220173,10.4198308 8.19944443,10.3642127 8.51017704,10.3642127 C8.828136,10.3642127 9.12079837,10.4198308 9.38817295,10.5310687 C9.65554752,10.6423066 9.88498037,10.7983962 10.0764784,10.9993421 C10.2679764,11.2002881 10.4161141,11.4407019 10.5208961,11.7205909 C10.625678,12.0004798 10.6780682,12.3054825 10.6780682,12.6356079 Z" id="Combined-Shape-Copy"></path>
            </g>
        </g>
    </g>
</svg>