<?xml version="1.0" encoding="UTF-8"?>
<svg width="100px" height="100px" viewBox="0 0 100 100" version="1.1" xmlns="http://www.w3.org/2000/svg" xmlns:xlink="http://www.w3.org/1999/xlink">
    <!-- Generator: Sketch 48.2 (47327) - http://www.bohemiancoding.com/sketch -->
    <title>icon-symbol</title>
    <desc>Created with Sketch.</desc>
    <defs></defs>
    <g id="Tweet-sample" stroke="none" stroke-width="1" fill="none" fill-rule="evenodd" transform="translate(-40.000000, -268.000000)">
        <g id="icon-symbol" transform="translate(40.000000, 268.000000)">
            <circle id="Oval-3" fill="#FFFFFF" cx="51" cy="50" r="45"></circle>
            <path d="M46.7737174,59.9718574 C47.1305351,59.6427384 47.4873517,59.2683591 47.8441718,58.8487151 C48.395553,58.2002544 48.8888867,57.4581383 49.3241877,56.6223445 C49.7594886,55.7865507 50.1077241,54.8571043 50.3689047,53.8339774 C50.6300853,52.8108505 50.7606736,51.7084839 50.7606736,50.5268444 C50.7606736,48.2212063 50.3471439,46.1101382 49.5200721,44.1935766 C48.6930003,42.2770149 47.5394701,40.6342725 46.0594469,39.2652999 C44.5794236,37.8963273 42.8237361,36.8299857 40.7923317,36.0662431 C38.7609273,35.3025005 36.5554355,34.9206349 34.1757904,34.9206349 C31.7961452,34.9206349 29.5833985,35.3025005 27.5374841,36.0662431 C25.4915696,36.8299857 23.7213723,37.9035323 22.226839,39.2869151 C20.7323058,40.670298 19.5642657,42.3274504 18.7226839,44.2584223 C17.8811021,46.1893942 17.4603175,48.3220774 17.4603175,50.6565359 C17.4603175,53.1639173 17.8593373,55.3902656 18.6573891,57.3356477 C19.4554408,59.2810298 20.5726965,60.9237723 22.0091896,62.2639244 C23.4456828,63.6040765 25.1796055,64.619983 27.21101,65.3116744 C29.2424144,66.0033658 31.4769258,66.3492063 33.9146111,66.3492063 L51.1873103,66.3492063 C52.8108473,66.3492063 54.1269841,65.0330696 54.1269841,63.4095325 C54.1269841,63.3937817 54.1268555,63.3780311 54.1265981,63.3622824 C54.1005026,61.7652708 52.7847143,60.4917917 51.1877027,60.5178872 L49.9824499,60.5375813 C47.8304919,60.7050293 45.9792585,61.1906214 44.4287497,61.9943576 L46.1900365,60.4752736 L46.1900365,60.4698587 C46.2161332,60.4493978 46.2422299,60.4286947 46.2683266,60.4077496 L46.7737246,59.9718512 Z M50,100 C22.3857625,100 0,77.6142375 0,50 C0,22.3857625 22.3857625,0 50,0 C77.6142375,0 100,22.3857625 100,50 C100,77.6142375 77.6142375,100 50,100 Z M55.9314954,35.7936508 C53.9705846,35.7936508 52.3809524,37.3832831 52.3809524,39.3441938 C52.3809524,41.3051046 53.9705846,42.8947368 55.9314954,42.8947368 L76.7669173,42.8947368 C78.7278281,42.8947368 80.3174603,41.3051046 80.3174603,39.3441938 C80.3174603,37.3832831 78.7278281,35.7936508 76.7669173,35.7936508 L55.9314954,35.7936508 Z M62.8571429,61.8701702 C62.8571429,63.8617202 64.4205929,65.4761905 66.3492063,65.4761905 C68.2778198,65.4761905 69.8412698,63.8617202 69.8412698,61.8701702 L69.8412698,48.1298298 C69.8412698,46.1382798 68.2778198,45.3968254 66.3492063,45.3968254 C64.4205929,45.3968254 62.8571429,46.1382798 62.8571429,48.1298298 L62.8571429,61.8701702 Z M42.8817658,50.7429969 C42.8817658,52.1263797 42.6641186,53.3872566 42.2288177,54.5256654 C41.7935167,55.6640742 41.1841045,56.6439556 40.4005628,57.4653392 C39.6170211,58.2867227 38.688393,58.9207637 37.6146507,59.3674811 C36.5409083,59.8141984 35.3801232,60.0375538 34.1322605,60.0375538 C32.8553777,60.0375538 31.6873377,59.8141984 30.6281054,59.3674811 C29.568873,58.9207637 28.6547548,58.2867227 27.8857231,57.4653392 C27.1166914,56.6439556 26.521789,55.6640742 26.1009981,54.5256654 C25.6802072,53.3872566 25.4698149,52.1263797 25.4698149,50.7429969 C25.4698149,49.417255 25.6874621,48.1924032 26.122763,47.0684046 C26.558064,45.9444061 27.1674762,44.9789346 27.9510179,44.1719613 C28.7345596,43.364988 29.6559328,42.7381521 30.7151651,42.2914347 C31.7743974,41.8447173 32.9279276,41.621362 34.1757904,41.621362 C35.4526731,41.621362 36.6279681,41.8447173 37.7017104,42.2914347 C38.7754528,42.7381521 39.6968259,43.364988 40.4658576,44.1719613 C41.2348893,44.9789346 41.8297917,45.9444061 42.2505826,47.0684046 C42.6713735,48.1924032 42.8817658,49.417255 42.8817658,50.7429969 Z" fill="#159588"></path>
        </g>
    </g>
</svg>